<?xml version="1.0" standalone="no"?>
<!DOCTYPE svg PUBLIC "-//W3C//DTD SVG 20010904//EN"
 "http://www.w3.org/TR/2001/REC-SVG-20010904/DTD/svg10.dtd">
<svg version="1.0" xmlns="http://www.w3.org/2000/svg"
 width="5367.000000pt" height="5367.000000pt" viewBox="0 0 5367.000000 5367.000000"
 preserveAspectRatio="xMidYMid meet">

<g transform="translate(0.000000,5367.000000) scale(0.100000,-0.100000)"
fill="#000000" stroke="none">
<path d="M14171 32310 c-31 -5 -36 -9 -46 -50 -13 -51 -47 -127 -67 -150 -7
-9 -29 -27 -48 -40 -30 -22 -46 -25 -115 -24 -71 0 -93 6 -199 47 -66 26 -133
54 -150 61 -332 147 -751 195 -1081 125 -70 -15 -226 -65 -290 -93 -241 -107
-474 -318 -606 -550 -97 -170 -149 -368 -149 -576 0 -414 208 -768 624 -1061
27 -19 65 -45 85 -59 20 -14 86 -56 146 -94 61 -38 137 -86 170 -107 50 -31
361 -210 525 -301 47 -26 237 -137 350 -203 93 -55 230 -145 265 -175 204
-174 309 -328 356 -525 17 -73 20 -108 16 -190 -10 -179 -72 -318 -202 -454
-180 -189 -368 -267 -682 -286 -168 -11 -379 17 -543 71 -69 23 -298 128 -310
143 -3 3 -38 28 -77 55 -88 59 -216 184 -269 263 -121 178 -223 465 -278 786
l-7 37 -64 0 -65 0 0 -810 0 -810 64 0 64 0 18 76 c27 115 69 166 153 185 66
15 200 -15 481 -106 393 -127 484 -145 767 -152 270 -7 418 10 603 68 386 123
693 387 856 736 219 468 108 1031 -277 1398 -96 92 -142 128 -269 212 -186
123 -350 219 -736 431 -122 67 -245 135 -273 151 -29 17 -54 31 -56 31 -2 0
-63 36 -136 81 -117 71 -185 117 -357 237 -70 48 -218 188 -262 246 -94 125
-125 219 -124 376 0 98 5 127 28 195 34 99 91 189 176 275 85 87 128 119 225
168 131 65 232 86 415 86 207 0 361 -34 549 -122 164 -76 326 -199 425 -322
186 -229 271 -450 342 -887 5 -33 5 -33 64 -33 l60 0 0 819 0 819 -27 3 c-16
3 -43 2 -62 -1z"/>
<path d="M20839 32313 c-14 -3 -194 -417 -669 -1533 -83 -195 -155 -364 -160
-375 -10 -21 -625 -1460 -801 -1875 -180 -421 -321 -682 -433 -798 -66 -69
-174 -116 -348 -152 -64 -13 -70 -22 -65 -95 l3 -40 747 -3 747 -2 0 63 0 64
-75 6 c-140 12 -289 49 -352 88 -42 26 -89 81 -109 127 -25 58 -13 174 29 302
44 130 51 148 232 565 81 187 151 350 156 362 l9 23 924 0 c917 0 925 0 936
-20 6 -11 33 -73 59 -138 27 -64 97 -232 155 -372 123 -293 169 -418 190 -524
32 -152 19 -215 -62 -296 -47 -45 -70 -60 -127 -78 -75 -24 -177 -42 -237 -42
l-38 0 0 -65 0 -65 935 0 935 0 0 63 0 63 -88 12 c-297 40 -442 166 -627 547
-40 83 -107 231 -148 330 -41 99 -157 376 -257 615 -100 239 -204 487 -230
550 -26 63 -129 309 -228 545 -99 237 -221 529 -272 650 -50 121 -120 288
-155 370 -34 83 -86 206 -115 275 -29 69 -76 183 -106 253 -30 71 -54 130 -54
132 0 3 -11 28 -24 57 -13 29 -56 132 -96 228 -40 96 -74 177 -76 179 -5 5
-86 8 -105 4z m-106 -1178 c19 -44 81 -190 137 -325 56 -135 115 -274 130
-310 15 -36 73 -173 128 -305 55 -132 162 -386 236 -564 103 -245 133 -327
124 -333 -15 -10 -1549 -10 -1595 0 l-31 7 144 335 c80 184 260 603 401 930
258 601 282 655 288 648 2 -1 19 -39 38 -83z"/>
<path d="M33038 32312 c-40 -3 -40 -3 -53 -105 -14 -107 -68 -179 -143 -192
-47 -8 -116 9 -274 66 -550 198 -681 224 -1098 223 -296 0 -429 -14 -654 -69
-158 -38 -365 -116 -496 -188 -59 -32 -225 -134 -250 -154 -8 -7 -43 -33 -77
-58 -218 -162 -458 -429 -615 -685 -162 -263 -275 -526 -339 -785 -138 -565
-88 -1136 143 -1637 84 -183 186 -344 324 -513 82 -100 250 -269 333 -335 456
-364 1026 -540 1744 -540 317 0 529 20 767 71 111 24 284 72 355 98 209 78
295 115 452 194 l103 52 0 745 c0 1069 11 1177 132 1299 24 24 56 50 72 58 62
32 160 53 248 53 l88 0 0 65 0 65 -920 0 -920 0 0 -63 0 -64 119 -6 c203 -11
296 -42 379 -126 59 -60 90 -121 109 -219 22 -107 32 -1704 12 -1729 -20 -23
-220 -116 -344 -158 -231 -79 -360 -100 -630 -99 -178 0 -225 3 -311 22 -167
36 -294 82 -451 163 -188 97 -309 191 -468 360 -177 189 -356 508 -459 819
-30 91 -60 190 -66 220 -6 30 -18 84 -25 120 -50 230 -71 536 -55 794 23 394
99 706 245 1013 242 508 601 818 1080 935 261 63 618 65 878 4 438 -103 775
-381 996 -825 44 -86 134 -306 146 -354 7 -26 10 -27 68 -27 l60 0 -7 78 c-3
42 -11 136 -16 207 -6 72 -24 290 -40 485 -16 195 -34 416 -40 490 -16 215
-18 227 -43 231 -12 2 -39 3 -59 1z"/>
<path d="M15090 32142 l0 -59 163 -6 c177 -6 222 -16 315 -68 108 -62 152
-132 183 -294 16 -81 25 -3506 10 -3675 -19 -206 -52 -288 -144 -364 -95 -78
-201 -106 -399 -106 l-128 0 0 -65 0 -65 1015 0 1015 0 0 65 0 65 -132 0
c-214 0 -327 34 -421 125 -56 55 -69 79 -91 165 -33 134 -37 255 -34 1041 l3
776 113 -23 c258 -52 421 -68 687 -68 215 0 267 3 370 22 66 13 134 27 150 32
17 5 55 17 85 26 85 25 267 115 345 170 76 53 214 185 261 249 16 22 31 42 34
45 23 21 100 170 132 253 66 173 82 272 83 497 0 131 -4 213 -13 250 -66 268
-165 445 -351 627 -223 218 -508 351 -861 402 -41 6 -109 16 -150 23 -53 8
-399 13 -1157 15 l-1083 4 0 -59z m1935 -223 c269 -31 494 -146 637 -324 274
-340 336 -905 141 -1290 -54 -106 -88 -152 -185 -248 -124 -122 -230 -185
-383 -228 -68 -20 -103 -23 -235 -23 -156 0 -224 7 -442 46 l-118 20 0 994 c0
547 2 994 3 994 2 0 48 9 103 21 90 19 285 45 359 48 17 0 71 -4 120 -10z"/>
<path d="M23412 32143 l3 -58 55 -3 c186 -8 313 -42 471 -124 109 -56 182
-118 315 -266 l95 -104 -4 -1812 c-3 -1643 -4 -1817 -19 -1878 -25 -101 -51
-152 -103 -202 -95 -91 -209 -126 -412 -126 l-133 0 0 -65 0 -65 823 2 822 3
3 63 3 62 -139 0 c-163 0 -265 21 -350 73 -103 61 -144 137 -173 317 -16 96
-26 3244 -11 3239 6 -2 47 -49 92 -104 45 -55 94 -114 109 -131 14 -18 60 -74
101 -124 64 -80 205 -251 258 -315 10 -11 55 -67 102 -125 47 -58 87 -107 90
-110 3 -3 51 -61 107 -130 147 -180 581 -711 601 -735 24 -28 181 -219 239
-291 58 -73 941 -1151 964 -1179 28 -33 125 -151 302 -367 92 -113 173 -210
180 -215 6 -5 35 -7 64 -5 l52 4 4 2126 c4 2194 4 2172 44 2316 30 108 118
191 253 237 53 18 95 23 223 27 l157 5 0 58 0 59 -825 0 -825 0 0 -60 0 -60
118 0 c142 0 223 -12 307 -46 123 -49 185 -129 222 -284 16 -69 17 -187 20
-1595 l3 -1520 -43 45 c-23 25 -105 124 -182 219 -77 96 -205 253 -285 351
-80 97 -161 196 -180 220 -19 24 -58 71 -85 104 -28 34 -77 95 -110 136 -33
41 -121 149 -195 240 -183 223 -247 301 -375 460 -93 115 -491 602 -543 665
-9 11 -55 68 -102 125 -46 58 -89 110 -95 116 -5 6 -62 76 -125 154 -63 79
-138 171 -166 204 -27 34 -80 98 -117 144 -37 45 -97 119 -134 165 -37 45 -69
84 -73 87 -3 3 -21 25 -40 50 -19 25 -42 53 -50 62 -13 17 -57 18 -663 18
l-648 0 3 -57z"/>
<path d="M34060 32141 l0 -58 163 -6 c314 -10 436 -81 482 -279 34 -149 36
-297 32 -2073 -4 -1889 -2 -1837 -55 -1941 -68 -132 -258 -214 -499 -214
l-124 0 3 -62 3 -63 1830 0 1830 0 22 65 c23 68 54 159 223 650 56 162 115
333 131 379 16 47 29 88 29 92 0 9 -114 4 -129 -5 -5 -3 -23 -33 -40 -66 -192
-368 -434 -652 -646 -758 -185 -92 -233 -97 -1035 -97 l-675 0 -47 23 c-60 30
-96 66 -122 122 -21 45 -21 53 -24 1003 l-3 957 576 0 c599 0 723 -6 835 -41
134 -42 242 -128 293 -233 23 -47 65 -230 92 -398 l6 -38 59 0 60 0 0 825 0
825 -59 0 -59 0 -7 -67 c-16 -159 -61 -314 -116 -396 -91 -138 -195 -191 -424
-217 -51 -5 -345 -10 -672 -10 l-583 0 0 945 0 945 728 0 c887 0 984 -7 1117
-73 121 -60 198 -136 255 -252 41 -81 100 -272 121 -390 l12 -65 64 0 63 0 0
68 c0 37 -5 148 -10 247 -5 99 -14 281 -20 405 -6 124 -13 244 -16 268 l-5 42
-1830 0 -1829 0 0 -59z"/>
<path d="M38460 32141 l0 -58 163 -6 c311 -10 436 -82 481 -277 35 -152 37
-294 33 -2075 -4 -1889 -2 -1837 -55 -1941 -67 -132 -258 -214 -499 -214
l-123 0 0 -65 0 -65 1833 2 1832 3 22 65 c12 36 63 184 113 330 50 146 118
342 150 435 32 94 72 210 89 259 17 50 31 92 31 96 0 7 -115 4 -128 -4 -6 -3
-22 -29 -37 -58 -15 -29 -57 -102 -93 -163 -244 -408 -473 -613 -747 -669
-151 -32 -314 -38 -920 -34 -596 3 -600 3 -646 25 -59 29 -97 66 -123 123 -21
45 -21 53 -24 1003 l-3 957 583 0 c343 0 620 -4 673 -11 198 -23 341 -95 418
-212 50 -74 77 -178 122 -449 l6 -38 59 0 60 0 0 825 0 825 -59 0 -59 0 -7
-67 c-15 -150 -57 -298 -108 -386 -33 -55 -111 -134 -159 -158 -54 -28 -171
-57 -273 -69 -51 -5 -344 -10 -672 -10 l-583 0 0 945 0 945 718 0 c695 0 912
-7 1017 -31 148 -34 293 -151 364 -292 41 -83 100 -271 122 -392 l12 -65 64 0
63 0 0 68 c0 37 -5 148 -10 247 -5 99 -14 281 -20 405 -6 124 -13 244 -16 268
l-5 42 -1830 0 -1829 0 0 -59z"/>
<path d="M11210 24720 l0 -2430 15555 0 15555 0 0 2430 0 2430 -6189 0 -6189
0 -10 -28 c-12 -35 -63 -95 -201 -237 -59 -60 -147 -153 -196 -205 -50 -52
-171 -181 -270 -285 -389 -410 -399 -420 -640 -690 -93 -104 -172 -192 -175
-195 -3 -3 -20 -23 -39 -45 -19 -22 -64 -74 -101 -115 -65 -72 -192 -223 -370
-441 -77 -94 -257 -307 -270 -319 -3 -3 -30 -34 -60 -70 -30 -36 -57 -67 -60
-70 -3 -3 -30 -34 -60 -70 -30 -36 -57 -67 -60 -70 -23 -23 -237 -277 -320
-380 -19 -24 -64 -80 -100 -124 -36 -45 -122 -155 -190 -246 -138 -182 -135
-179 -170 -203 -49 -34 -160 -14 -194 34 -30 43 -20 113 49 345 36 121 81 266
100 324 18 58 57 179 86 270 47 151 156 447 199 545 10 22 59 135 110 250 51
116 112 251 136 300 27 54 36 80 23 65 -26 -31 -148 -167 -210 -235 -25 -27
-236 -268 -469 -535 -233 -267 -426 -487 -429 -490 -3 -3 -24 -26 -46 -51
-125 -143 -458 -512 -510 -565 -22 -23 -112 -115 -200 -205 -175 -178 -268
-282 -360 -400 -206 -264 -200 -259 -296 -259 -66 0 -114 44 -124 114 -7 42
-3 60 31 145 76 193 299 639 492 987 28 50 88 156 133 235 77 136 99 173 184
319 19 33 50 86 68 118 62 107 230 377 272 437 23 33 111 164 195 290 300 449
570 782 712 878 23 15 48 27 58 27 21 0 40 -19 40 -42 0 -56 -113 -251 -488
-838 -22 -36 -73 -121 -113 -190 -39 -69 -108 -186 -151 -260 -138 -233 -155
-262 -224 -385 -113 -201 -148 -264 -236 -420 -93 -164 -218 -380 -251 -435
-22 -37 -21 -36 197 205 60 66 208 221 330 345 122 124 291 299 376 390 167
177 801 815 990 995 418 398 472 441 525 417 42 -19 31 -64 -48 -195 -123
-202 -183 -333 -365 -802 -120 -310 -178 -475 -225 -635 -14 -47 -39 -131 -56
-187 -17 -56 -31 -106 -31 -110 0 -4 21 23 46 62 62 94 120 168 303 385 53 63
214 251 252 295 117 135 197 225 274 310 49 56 126 141 170 190 173 193 223
245 605 626 543 542 1013 972 1198 1094 23 15 42 29 42 31 0 2 -4187 4 -9305
4 l-9305 0 0 -2430z m29388 2228 c22 -22 12 -54 -41 -139 -81 -129 -175 -251
-401 -524 -433 -521 -479 -574 -825 -950 -116 -126 -264 -306 -391 -475 -53
-70 -206 -253 -332 -395 -145 -164 -449 -526 -567 -674 -80 -101 -184 -231
-229 -289 l-84 -105 104 6 c104 7 174 18 348 57 384 85 1075 282 1655 470 387
126 736 230 771 230 30 0 49 -33 34 -60 -14 -26 -70 -57 -235 -130 -436 -193
-778 -332 -1060 -430 -60 -21 -190 -68 -287 -104 -794 -294 -1333 -405 -1529
-314 -103 49 -134 97 -134 213 0 89 2 93 107 270 120 204 307 445 470 607 53
54 141 155 195 225 140 184 273 347 397 488 106 120 333 372 397 440 30 33
118 128 194 210 77 83 173 186 214 230 42 44 116 123 165 175 242 256 675 696
791 803 123 113 211 177 246 177 8 0 20 -5 27 -12z m-4652 -59 c13 -14 14 -21
4 -39 -16 -29 -48 -41 -235 -89 -310 -78 -382 -93 -810 -172 -121 -22 -355
-67 -520 -100 -424 -84 -929 -166 -1140 -184 -99 -9 -277 -18 -395 -22 -246
-6 -295 1 -306 44 -4 14 -3 33 2 42 15 24 133 79 216 100 115 30 507 109 694
141 431 74 1349 196 2109 280 208 23 357 22 381 -1z m-14438 -55 c230 -44 381
-142 466 -304 113 -214 111 -481 -7 -840 -50 -150 -69 -197 -154 -365 -138
-273 -301 -517 -592 -884 -123 -154 -649 -667 -836 -813 -217 -171 -540 -357
-735 -426 -156 -54 -273 -76 -405 -76 -137 0 -198 15 -291 69 -249 148 -310
503 -169 991 105 359 359 813 638 1139 179 208 491 501 672 631 205 146 426
249 609 283 119 22 142 -55 33 -110 -90 -46 -246 -146 -342 -218 -133 -101
-223 -181 -387 -347 -223 -227 -340 -373 -536 -666 -198 -297 -297 -472 -390
-693 -98 -232 -132 -363 -132 -509 0 -198 66 -287 234 -316 185 -33 483 94
791 335 637 498 1269 1196 1594 1760 104 180 225 451 264 590 50 184 29 357
-57 452 -82 91 -196 133 -364 133 -123 0 -251 -27 -448 -94 -228 -77 -294
-105 -529 -221 -233 -115 -255 -132 -630 -465 -88 -78 -174 -149 -192 -158
-153 -73 -4 213 224 431 246 234 294 277 348 319 83 63 181 122 306 184 370
184 708 247 1017 188z m-2833 -17 c27 -21 13 -61 -29 -81 -19 -9 -80 -27 -137
-40 -112 -26 -699 -145 -969 -196 -91 -17 -210 -39 -265 -50 -109 -21 -252
-48 -745 -140 -179 -33 -334 -63 -346 -65 -11 -3 -41 -33 -65 -67 -24 -35 -73
-101 -109 -148 -37 -47 -154 -197 -260 -335 -180 -232 -444 -563 -649 -815
-92 -113 -121 -146 -191 -225 -41 -44 -107 -121 -275 -320 -28 -33 -129 -157
-225 -275 -172 -213 -335 -406 -465 -550 -37 -41 -118 -138 -180 -215 -219
-273 -366 -408 -412 -379 -28 17 -26 46 7 109 56 106 220 344 284 413 35 37
93 113 130 170 214 331 664 942 1056 1432 64 80 176 222 250 315 210 267 237
301 376 470 72 88 173 202 225 253 51 50 88 92 82 92 -6 0 -170 -27 -365 -59
-486 -82 -639 -106 -888 -140 -197 -27 -298 -39 -745 -87 -201 -21 -472 -21
-513 0 -38 20 -45 31 -38 60 13 51 188 109 526 175 530 103 1022 184 1950 321
146 21 283 42 306 45 34 6 53 20 110 78 90 91 189 171 245 196 54 25 63 25 83
5 25 -24 19 -63 -19 -143 -20 -41 -34 -75 -32 -77 2 -3 66 5 142 16 76 12 170
25 209 30 101 13 783 105 961 130 144 20 355 48 535 71 71 9 333 34 406 38 11
0 28 -5 39 -12z m14873 -532 c2 -19 -8 -52 -28 -88 -43 -82 -175 -262 -237
-324 -28 -29 -50 -53 -47 -53 2 0 46 9 97 21 431 97 880 159 935 130 31 -17
28 -55 -5 -79 -60 -42 -393 -140 -773 -227 -399 -91 -442 -103 -478 -138 -43
-41 -185 -205 -283 -327 -42 -52 -115 -135 -161 -185 -46 -49 -122 -139 -170
-200 -47 -60 -157 -193 -244 -294 -379 -439 -447 -520 -647 -774 -117 -148
-220 -279 -230 -293 l-19 -24 44 0 c180 0 831 155 1388 330 173 54 362 112
520 160 58 17 211 65 339 106 292 93 410 125 481 127 55 2 55 2 53 -27 -3 -35
-11 -41 -148 -110 -195 -98 -582 -259 -1085 -453 -430 -166 -1172 -393 -1395
-428 -365 -57 -568 51 -526 280 12 69 78 208 147 310 60 90 409 524 555 690
15 17 78 88 140 160 225 256 537 581 782 814 70 67 91 92 74 87 -77 -19 -375
-56 -455 -56 -89 0 -93 1 -104 25 -10 22 -9 29 8 44 43 41 314 131 602 201
l173 42 182 182 c214 214 381 365 428 389 51 26 83 19 87 -18z"/>
</g>
</svg>
